<svg width="1664" height="1125" viewBox="0 0 1664 1125" fill="none" xmlns="http://www.w3.org/2000/svg">
<path d="M902.791 1124.1L888.423 1123.77C840.753 1117.98 803.331 1101.38 776.155 1073.98C736.282 1034.33 709.551 983.432 695.963 921.284C682.598 859.135 675.915 796.653 675.915 733.836C675.915 718.243 676.249 702.316 676.917 686.055C681.373 585.593 687.832 483.571 696.297 379.99C699.638 341.899 701.309 300.356 701.309 255.359L700.975 222.948C700.307 152.781 685.382 113.13 656.201 103.998C653.305 103.552 650.41 103.329 647.514 103.329C626.352 103.329 604.299 116.806 581.356 143.759L579.351 146.098C513.638 217.38 452.604 354.039 396.247 556.078C389.341 581.249 382.325 607.98 375.196 636.269C370.296 656.763 365.172 677.034 359.826 697.081C359.158 698.195 358.713 699.42 358.49 700.757C352.03 725.705 346.016 738.514 340.447 739.182C333.987 738.737 330.646 732.722 330.423 721.139V706.771C331.091 691.178 331.982 678.481 333.096 668.68C333.541 663.78 333.764 659.993 333.764 657.32C340.892 502.283 349.023 349.919 358.156 200.227C361.274 164.587 362.834 130.171 362.834 96.9808C362.834 70.0275 361.831 43.5197 359.826 17.4574C340.001 36.837 324.297 60.3377 312.714 87.9592L303.358 106.002C261.258 188.199 224.614 274.739 193.429 365.623C157.12 471.654 122.147 590.382 88.5114 721.807C79.6012 755.666 70.4683 789.636 61.1126 823.717C53.0934 854.903 44.6287 870.496 35.7186 870.496C30.5952 869.828 27.0311 865.818 25.0263 858.467C23.2443 851.339 22.0192 842.54 21.3509 832.071C16.2275 768.808 13.6659 704.766 13.6659 639.945L14 596.508C14 553.739 13.2204 511.416 11.6611 469.538C9.87904 422.982 8.98802 376.426 8.98802 329.871C8.98802 223.617 6.76048 145.318 2.30539 94.976C1.41437 89.4071 0.968861 84.061 0.968861 78.9377C0.968861 71.364 2.97365 65.9065 6.98323 62.5652C12.1066 64.3472 15.2251 68.4682 16.3389 74.9281C17.4527 81.1652 18.0096 89.8526 18.0096 100.99C23.5784 207.69 26.3629 315.057 26.3629 423.093L26.0287 484.574C26.0287 609.762 29.8156 730.383 37.3892 846.438C47.8587 819.708 56.212 791.975 62.4491 763.24C93.1892 636.715 128.162 514.868 167.366 397.699C203.007 290.777 245.108 188.756 293.668 91.6347C316.835 44.8562 337.774 14.3388 356.485 0.0825539H364.504C371.187 8.32447 374.974 17.1233 375.865 26.479C376.978 35.8347 377.535 44.6335 377.535 52.8754L377.201 76.9329C377.201 95.867 376.422 120.036 374.862 149.439C371.075 247.229 366.175 339.783 360.161 427.103C354.369 512.863 349.914 598.067 346.795 682.714C373.749 581.583 397.583 498.384 418.299 433.117C441.02 362.281 468.531 296.457 500.83 235.645C523.328 189.981 551.061 150.999 584.029 118.699C605.413 99.0969 626.575 89.2957 647.514 89.2957L654.531 89.6299C683.934 95.867 701.42 116.249 706.989 150.776C712.781 185.08 715.677 217.936 715.677 249.345C714.786 323.522 711.444 389.346 705.653 446.817C695.852 551.511 690.951 628.696 690.951 678.37V740.853C690.951 820.153 700.418 891.546 719.352 955.031C738.509 1018.52 773.482 1063.96 824.27 1091.36C847.882 1102.49 872.941 1108.06 899.449 1108.06C907.023 1108.06 914.819 1107.62 922.838 1106.73C957.811 1102.72 990.222 1092.8 1020.07 1076.99C1069.52 1050.7 1112.96 1017.85 1150.38 978.42C1188.03 939.216 1222.67 897.895 1254.3 854.458C1258.31 846.216 1262.54 842.095 1266.99 842.095C1268.33 842.095 1269.89 842.429 1271.67 843.097C1272.34 845.102 1272.67 847.107 1272.67 849.111C1272.67 854.235 1269.11 860.695 1261.98 868.491C1187.36 973.186 1107.72 1047.47 1023.08 1091.36C981.868 1113.19 941.773 1124.1 902.791 1124.1ZM793.529 665.005C790.411 665.005 787.404 664.448 784.508 663.334C774.929 659.325 770.14 651.417 770.14 639.611C770.14 617.113 778.494 596.619 795.2 578.131C810.57 560.978 827.054 552.402 844.652 552.402C849.552 552.402 854.23 553.516 858.685 555.744C865.145 559.085 868.375 563.651 868.375 569.443L868.041 573.453L864.365 573.787C861.47 573.787 857.683 572.673 853.005 570.445C848.327 567.995 843.761 566.77 839.306 566.77C836.187 566.77 832.623 567.438 828.613 568.775C814.58 574.121 803.999 583.922 796.871 598.178C789.743 612.212 786.179 624.129 786.179 633.931C786.179 639.722 787.181 645.291 789.186 650.637C800.769 647.519 810.013 642.172 816.919 634.599C824.047 627.025 830.284 618.783 835.63 609.873C841.867 599.849 848.995 590.828 857.014 582.808C861.247 584.813 863.474 587.486 863.697 590.828C863.92 593.946 864.031 595.951 864.031 596.842C864.031 601.297 863.586 605.975 862.695 610.875C862.026 615.553 861.692 620.12 861.692 624.575L862.026 629.587C862.249 639.834 864.811 646.405 869.711 649.301C882.631 648.41 892.989 644.289 900.786 636.938C908.582 629.364 915.376 621.011 921.168 611.878C924.286 607.646 927.071 603.302 929.521 598.847C935.535 587.041 942.329 580.804 949.903 580.135C951.24 581.917 951.908 584.034 951.908 586.484C951.908 591.384 948.121 599.181 940.547 609.873C934.533 619.451 926.18 630.032 915.488 641.616C901.454 656.763 887.977 664.337 875.058 664.337C858.128 664.337 848.995 650.303 847.659 622.236C844.54 623.795 840.085 628.028 834.294 634.933C818.032 654.981 804.444 665.005 793.529 665.005ZM1027.76 669.683C1021.07 669.683 1014.95 667.232 1009.38 662.332C1006.26 657.431 1004.7 651.417 1004.7 644.289C1004.7 637.829 1005.81 629.921 1008.04 620.565C1009.38 609.205 1010.05 599.404 1010.05 591.162C1010.05 582.029 1008.71 574.901 1006.04 569.777C1000.91 569.777 994.565 570.891 986.992 573.119C976.077 576.46 967.946 578.131 962.6 578.131C960.818 578.131 959.259 577.908 957.922 577.462C955.472 579.467 951.685 586.484 946.562 598.513C944.557 602.745 942.329 604.861 939.879 604.861C938.765 604.861 937.54 604.638 936.204 604.193C934.644 602.634 933.865 600.629 933.865 598.178C933.865 597.065 934.088 595.951 934.533 594.837C938.097 588.6 940.77 582.363 942.552 576.126C940.547 574.344 938.765 572.784 937.206 571.448C935.424 569.889 933.865 568.441 932.528 567.104C931.192 565.545 930.301 563.54 929.855 561.09C929.187 558.64 928.853 556.412 928.853 554.407C928.853 549.507 930.412 545.497 933.531 542.378C939.1 536.81 944.223 534.025 948.901 534.025C951.797 534.025 954.915 534.693 958.256 536.03C961.821 540.708 963.603 545.72 963.603 551.066L962.266 564.097H963.937C969.506 564.097 979.084 561.981 992.672 557.748C998.241 556.189 1003.59 555.41 1008.71 555.41C1010.94 555.41 1013.17 556.523 1015.39 558.751C1017.62 560.978 1019.4 564.32 1020.74 568.775C1022.08 573.007 1022.74 579.913 1022.74 589.491C1022.74 597.51 1022.3 607.2 1021.41 618.56C1019.85 626.58 1019.07 633.374 1019.07 638.943C1019.07 649.635 1022.19 654.981 1028.42 654.981C1039.12 654.981 1053.48 644.623 1071.53 623.907C1075.54 616.778 1080.44 608.759 1086.23 599.849C1092.69 586.929 1099.37 580.469 1106.28 580.469H1108.28C1108.5 581.583 1108.62 582.808 1108.62 584.145C1108.62 590.159 1105.39 596.953 1098.93 604.527C1097.14 606.754 1092.69 613.883 1085.56 625.911C1077.32 640.613 1067.29 651.64 1055.49 658.99C1043.68 666.119 1034.44 669.683 1027.76 669.683ZM948.567 562.76C949.903 554.741 950.571 549.507 950.571 547.056L947.898 547.725C944.334 548.838 942.552 551.4 942.552 555.41L942.886 559.419C944 559.419 944.78 559.976 945.225 561.09C945.894 562.204 946.673 562.76 947.564 562.76H948.567ZM1134.01 669.014C1124.21 669.014 1114.63 666.898 1105.27 662.666C1092.58 654.647 1086.23 643.509 1086.23 629.253C1086.23 610.541 1093.13 593.946 1106.95 579.467C1118.75 566.77 1132.45 560.422 1148.04 560.422C1157.84 560.422 1166.64 563.317 1174.44 569.109C1180.45 573.787 1183.46 579.578 1183.46 586.484V588.489H1181.12C1176.22 588.489 1171.43 585.927 1166.75 580.804C1162.08 575.457 1155.95 572.784 1148.38 572.784C1135.01 572.784 1123.65 578.131 1114.3 588.823C1103.83 601.074 1098.48 613.994 1098.26 627.582C1099.82 644.289 1110.06 653.644 1129 655.649C1162.19 655.649 1196.72 638.386 1232.58 603.859C1235.03 601.631 1237.48 599.181 1239.93 596.508C1247.95 587.375 1255.3 582.363 1261.98 581.472C1263.32 583.254 1263.99 584.925 1263.99 586.484C1263.99 589.38 1261.98 592.832 1257.97 596.842L1256.3 598.178C1228.9 628.028 1200.17 648.744 1170.1 660.327C1155.39 666.119 1143.37 669.014 1134.01 669.014ZM1442.08 988.444C1436.51 986.217 1433.5 982.987 1433.06 978.755C1432.61 974.522 1432.39 970.958 1432.39 968.062C1432.39 965.167 1432.5 962.382 1432.72 959.709C1432.95 957.036 1433.06 954.697 1433.06 952.692V949.685C1430.16 869.493 1428.27 784.735 1427.38 695.411C1426.93 663.334 1426.38 631.703 1425.71 600.517C1423.92 600.74 1422.03 601.743 1420.03 603.525C1418.24 605.307 1416.57 607.2 1415.01 609.205C1413.46 610.987 1412.12 612.546 1411 613.883C1401.2 625.466 1388.73 636.047 1373.58 645.625C1358.43 655.204 1341.95 659.993 1324.13 659.993C1318.56 659.993 1312.77 659.547 1306.76 658.656C1296.06 656.651 1286.15 651.194 1277.02 642.284C1268.11 633.151 1263.21 621.679 1262.32 607.868V606.866C1262.32 604.638 1261.09 603.079 1258.64 602.188C1256.19 601.074 1254.97 599.515 1254.97 597.51C1254.97 594.837 1255.75 593.055 1257.3 592.164C1258.86 591.05 1260.53 590.159 1262.32 589.491C1267.22 587.932 1269.67 585.147 1269.67 581.138C1271.89 579.578 1274.12 577.685 1276.35 575.457C1284.81 567.661 1294.62 562.983 1305.75 561.424C1311.99 560.756 1316.78 560.422 1320.12 560.422C1336.16 560.422 1345.07 564.877 1346.85 573.787V575.792C1346.85 581.583 1343.73 586.261 1337.5 589.825C1331.48 593.389 1323.69 596.174 1314.11 598.178C1304.75 600.183 1295.84 601.743 1287.38 602.856L1274.01 604.861C1275.79 618.895 1281.14 629.364 1290.05 636.269C1298.96 642.952 1309.54 646.405 1321.79 646.628C1346.74 646.182 1367.57 638.163 1384.27 622.57C1401.2 606.754 1414.57 590.939 1424.37 575.123C1424.59 564.431 1424.7 553.293 1424.7 541.71C1424.7 518.766 1424.15 494.041 1423.03 467.533C1422.14 441.025 1421.7 414.517 1421.7 388.01C1421.7 348.359 1422.7 318.065 1424.7 297.126C1427.38 268.613 1433.28 254.357 1442.41 254.357H1443.42C1460.79 259.926 1472.26 282.647 1477.83 322.52C1481.17 345.018 1482.84 367.293 1482.84 389.346C1482.84 410.731 1481.28 431.892 1478.17 452.831C1471.71 495.377 1461.12 531.686 1446.42 561.758C1445.31 564.208 1443.97 566.547 1442.41 568.775C1439.96 572.116 1438.4 575.457 1437.74 578.799C1437.29 581.917 1437.07 585.704 1437.07 590.159C1437.07 595.728 1437.4 602.188 1438.07 609.539C1438.74 616.667 1439.07 623.572 1439.07 630.255V647.296C1439.07 727.487 1440.52 808.459 1443.42 890.21L1445.09 916.94C1445.98 930.751 1446.42 944.784 1446.42 959.041V967.728L1447.09 977.084C1447.09 982.207 1445.42 985.994 1442.08 988.444ZM1439.07 547.056C1454 513.643 1463.91 469.092 1468.81 413.404C1469.26 405.162 1469.48 397.031 1469.48 389.012C1469.48 334.437 1461.79 295.01 1446.42 270.729V270.395C1445.98 269.504 1444.98 269.059 1443.42 269.059C1438.07 303.808 1435.4 342.011 1435.4 383.666C1435.4 419.084 1436.62 473.547 1439.07 547.056ZM1281.7 590.159C1291.72 589.268 1301.19 587.932 1310.1 586.15C1319.01 584.145 1326.36 580.469 1332.15 575.123C1327.47 574.232 1323.02 573.787 1318.78 573.787C1300.3 573.787 1287.93 579.244 1281.7 590.159ZM1588.09 587.82C1602.13 587.82 1616.05 586.818 1629.86 584.813C1632.76 584.368 1635.76 583.699 1638.88 582.808C1643.56 581.472 1648.02 580.692 1652.25 580.469C1656.7 580.247 1660.49 581.695 1663.61 584.813C1662.05 589.714 1658.6 592.944 1653.25 594.503C1648.13 596.062 1642.56 597.065 1636.54 597.51C1634.76 597.733 1632.98 597.956 1631.2 598.178C1620.51 599.515 1609.7 600.406 1598.79 600.851C1595.67 600.851 1592.66 600.963 1589.77 601.186C1589.54 602.522 1589.21 603.859 1588.76 605.195C1586.09 620.788 1581.52 635.49 1575.06 649.301C1568.6 663.111 1557.69 669.794 1542.32 669.349C1533.85 668.012 1527.39 663.111 1522.94 654.647C1518.71 646.182 1515.81 636.269 1514.25 624.909C1514.03 623.795 1513.92 622.793 1513.92 621.902C1512.36 613.883 1511.69 605.752 1511.91 597.51C1512.14 589.045 1515.37 583.365 1521.6 580.469C1524.72 582.029 1526.5 584.702 1526.95 588.489C1527.39 592.053 1527.28 595.951 1526.61 600.183C1526.17 603.525 1525.95 606.866 1525.95 610.207C1526.61 620.677 1528.51 630.366 1531.63 639.277C1534.75 647.964 1538.98 653.31 1544.32 655.315C1549.67 657.32 1555.91 653.644 1563.03 644.289C1566.82 638.72 1569.61 632.037 1571.39 624.241C1573.17 616.444 1574.4 608.759 1575.06 601.186C1571.5 599.626 1567.6 598.067 1563.37 596.508C1553.57 593.166 1544.88 588.6 1537.31 582.808C1529.73 577.017 1526.95 567.884 1528.95 555.41C1529.18 554.741 1529.51 553.739 1529.96 552.402C1530.62 551.066 1531.29 549.841 1531.96 548.727C1532.63 547.613 1533.19 546.834 1533.63 546.388C1540.31 539.928 1548 538.48 1556.69 542.044C1565.6 545.386 1573.17 551.511 1579.41 560.422C1585.87 569.109 1588.76 578.242 1588.09 587.82ZM1542.32 556.746C1542.32 566.77 1545.33 573.675 1551.34 577.462C1557.58 581.249 1564.93 583.699 1573.39 584.813C1572.95 575.457 1569.83 567.55 1564.04 561.09C1558.47 554.63 1551.23 553.182 1542.32 556.746Z" fill="black"/>
</svg>
